<?xml version="1.0" encoding="UTF-8"?>
<svg version="1.1" xmlns="http://www.w3.org/2000/svg" width="675" height="321">
<path d="M0 0 C0.74771031 -0.00320648 1.49542062 -0.00641296 2.26578882 -0.0097166 C4.77332002 -0.01802338 7.28061279 -0.01208996 9.78814793 -0.00622082 C11.60325117 -0.00924119 13.41835314 -0.01313009 15.23345286 -0.01781338 C20.22309682 -0.0281168 25.21266912 -0.0259056 30.20231903 -0.02163279 C35.58277375 -0.01916984 40.96321103 -0.02817434 46.3436594 -0.03567028 C56.88499129 -0.04843106 67.42629773 -0.05020927 77.96763604 -0.04787002 C86.53389357 -0.04608833 95.10014336 -0.0478333 103.66639996 -0.05209446 C104.8847249 -0.05268965 106.10304985 -0.05328484 107.35829373 -0.05389806 C109.83316441 -0.05510979 112.30803509 -0.05632392 114.78290576 -0.05754044 C138.00116174 -0.06842118 161.21940319 -0.06625089 184.43765999 -0.06015559 C205.68804034 -0.05498531 226.93837486 -0.06624388 248.18874615 -0.08525381 C269.99934359 -0.10461563 291.80991933 -0.11289117 313.62052542 -0.10913056 C325.86926504 -0.10721608 338.11796564 -0.10973012 350.36669827 -0.1238451 C360.79345318 -0.13573873 371.22014507 -0.13718645 381.64690083 -0.12505493 C386.9682259 -0.11915221 392.28943557 -0.11810526 397.61075306 -0.13005733 C402.48065041 -0.14086853 407.35033533 -0.13786974 412.22022254 -0.12379565 C413.98327843 -0.12113556 415.74635072 -0.12355617 417.50939059 -0.13153151 C419.9043193 -0.14161452 422.2985063 -0.13323569 424.69340515 -0.12025452 C425.37921297 -0.12756386 426.06502078 -0.13487321 426.77161065 -0.14240405 C434.0400041 -0.06064323 439.10814961 2.51829778 444.34712315 7.50447559 C447.23863137 10.22703092 450.14696421 12.89486541 453.1635294 15.47713184 C458.67027034 20.26846823 463.66879621 25.56317188 468.69868565 30.84627247 C477.74635744 40.10381294 486.56209142 43.01635822 499.36708164 43.29744434 C503.93911211 43.34039311 508.51072733 43.30684969 513.08271885 43.27168751 C526.16875785 43.18210932 539.26250287 43.1689882 552.34605503 43.46199512 C554.36205426 43.50349634 556.37842141 43.52570383 558.39473057 43.54744434 C567.28944951 43.78205612 571.45276509 44.9382517 578.2807169 50.66072559 C581.96324009 55.45236999 581.30321822 61.98714028 581.47212315 67.75447559 C581.55030115 70.16133291 581.64481108 72.56772672 581.7572794 74.97322559 C581.78829746 76.03476856 581.81931553 77.09631153 581.85127354 78.19002247 C582.79229299 83.35472567 585.36639287 86.45326477 589.48814487 89.6188097 C590.06071648 90.0024877 590.63328808 90.3861657 591.22321033 90.7814703 C602.81609593 98.5676719 614.1083048 108.53142945 617.03694248 122.70021534 C619.44360843 138.85318467 618.66829622 155.39815046 618.00727487 171.66907132 C617.75964706 177.98157625 617.69648639 184.28973436 617.6513586 190.60639191 C617.60202105 197.34850941 617.45411785 204.08806251 617.30806065 210.82869434 C617.2881041 212.09792933 617.26814754 213.36716431 617.24758625 214.67486095 C616.8004546 237.1512401 616.8004546 237.1512401 611.12910557 243.55745411 C609.59811336 244.84180642 608.02857825 246.08294566 606.40962315 247.25447559 C605.41596035 248.25268855 604.4405651 249.26987162 603.49531651 250.31404591 C601.25728301 252.57243909 599.01914071 254.83064783 596.77070713 257.07869434 C595.33948745 258.51212307 593.91651008 259.95342108 592.49360752 261.39510059 C587.40010339 266.49923834 582.29191157 271.0927434 576.40962315 275.25447559 C575.01743565 276.39916309 575.01743565 276.39916309 573.59712315 277.56697559 C570.04432816 280.30770315 567.0921833 280.39386125 562.74263096 280.45979786 C561.57580784 280.47974308 560.40898472 280.4996883 559.20680332 280.52023792 C557.30399601 280.54530666 557.30399601 280.54530666 555.36274815 280.57088184 C554.0453867 280.59166294 552.72802525 280.61244404 551.37074375 280.63385487 C548.5663554 280.67786714 545.76194512 280.7187374 542.95747471 280.75716114 C539.43561315 280.8054605 535.91386567 280.8592285 532.3921175 280.91513252 C518.55849479 281.1338457 504.72667508 281.31078187 490.89088535 281.26035023 C485.63526291 281.24208967 480.38751721 281.2986318 475.13325596 281.42596912 C468.57125445 281.46843075 463.47405697 281.22642666 458.52461338 276.60384083 C456.35354779 274.25881041 454.38704203 271.76309019 452.40962315 269.25447559 C451.00783791 267.92413459 449.57335862 266.62668762 448.09712315 265.37947559 C447.46548252 264.83806934 446.8338419 264.29666309 446.18306065 263.73885059 C444.53627755 262.36048589 442.8808092 260.99347123 441.22212315 259.62947559 C438.46196881 257.2986786 435.94427953 254.82050447 433.40962315 252.25447559 C431.95777164 250.79161515 430.50567828 249.32899472 429.05342197 247.86653614 C428.22518421 247.03184299 427.39694645 246.19714985 426.54361057 245.33716297 C423.26452831 242.0347918 419.98167561 238.73618525 416.69757652 235.43880463 C414.21600869 232.94682791 411.7363398 230.45302154 409.26094151 227.95491505 C406.38519913 225.05298204 403.50112248 222.15945449 400.6166544 219.26619434 C399.74338001 218.38259739 398.87010563 217.49900043 397.97036839 216.58862782 C393.07713811 211.69452173 388.05907489 207.20556895 382.57359409 202.98247242 C379.42784457 200.47049545 376.72325803 197.6196611 373.97212315 194.69197559 C366.21533502 186.73172696 358.64164337 180.91165891 347.40962315 179.25447559 C347.40962315 178.59447559 347.40962315 177.93447559 347.40962315 177.25447559 C346.71857738 177.25503075 346.02753162 177.2555859 345.31554508 177.25615788 C283.74102923 177.30269306 222.16644627 177.23776897 160.59214878 177.07056904 C157.64491385 177.06262989 154.69767874 177.05476328 151.75044346 177.04695606 C151.01921827 177.04501478 150.28799308 177.04307349 149.53460956 177.04107338 C137.49093821 177.00951978 125.44728662 176.99290024 113.40358144 176.98128137 C100.87028525 176.96888121 88.33708808 176.94148141 75.80385447 176.89986253 C68.14962813 176.87489896 60.49556561 176.86134547 52.84129792 176.86304602 C47.03428979 176.86307922 41.22750457 176.84217034 35.42057514 176.81330776 C33.04655378 176.80478512 30.67249674 176.80307479 28.29846668 176.8086729 C25.06207212 176.8152921 21.82670072 176.79744674 18.59040928 176.77345753 C17.65304007 176.78121794 16.71567086 176.78897836 15.74989653 176.79697394 C7.02756336 176.68232292 2.20389751 173.4230187 -3.98100185 167.26228809 C-4.45229519 166.79386494 -4.92358852 166.32544178 -5.40916348 165.84282398 C-6.39415178 164.85985971 -7.37543239 163.87316685 -8.35307217 162.88289356 C-9.84044441 161.37940731 -11.3432211 159.8926691 -12.84818935 158.40681934 C-13.81009044 157.44293624 -14.77106071 156.47812314 -15.73100185 155.51228809 C-16.59241787 154.64748829 -17.45383389 153.78268848 -18.34135342 152.89168262 C-24.03214263 146.21865775 -24.02712346 140.3994082 -23.99442959 131.96614552 C-24.00129284 130.73126896 -24.00815609 129.4963924 -24.01522732 128.22409534 C-24.03036548 124.84773412 -24.03199642 121.47192628 -24.02628493 118.09557223 C-24.02318697 115.2702824 -24.02929255 112.44504214 -24.03532368 109.61975938 C-24.04935745 102.94937193 -24.04781836 96.27911256 -24.03642178 89.60872364 C-24.02495254 82.744468 -24.0389984 75.88060363 -24.06581825 69.01639956 C-24.08803013 63.10872796 -24.09460001 57.20117866 -24.08874184 51.2934683 C-24.08538279 47.77146112 -24.08771613 44.24970444 -24.10499287 40.72773266 C-24.12344161 36.7953311 -24.10921849 32.8634041 -24.09208584 28.93098927 C-24.10658779 27.1983231 -24.10658779 27.1983231 -24.12138271 25.43065357 C-24.05446834 18.07716532 -23.20340319 11.40978093 -18.21391869 5.67142487 C-12.82392776 0.79970949 -7.00439898 -0.0447501 0 0 Z " fill="#000000" transform="translate(37.59037685394287,17.745524406433105)"/>
</svg>
